<svg xmlns="http://www.w3.org/2000/svg" viewBox="0 0 200 260" fill="none" role="img" aria-hidden="true">
  <ellipse cx="100" cy="238" rx="52" ry="10" fill="rgb(0 0 0 / 0.06)"/>
  <path d="M58 118c8-28 32-44 42-44s34 16 42 44" fill="#f0e4d8"/>
  <circle cx="100" cy="72" r="28" fill="#f5d0b8"/>
  <path d="M72 74c4-14 16-22 28-22s24 8 28 22" fill="#3d2f28"/>
  <path d="M64 108c-6 18-8 42-6 72 2 24 8 44 14 58" stroke="#6e6e73" stroke-width="14" stroke-linecap="round"/>
  <path d="M136 108c6 18 8 42 6 72-2 24-8 44-14 58" stroke="#6e6e73" stroke-width="14" stroke-linecap="round"/>
  <path d="M74 122c-8 10-18 34-20 58-2 18 0 34 8 48" stroke="#b58244" stroke-width="18" stroke-linecap="round"/>
  <path d="M126 122c8 10 18 34 20 58 2 18 0 34-8 48" stroke="#d4a574" stroke-width="18" stroke-linecap="round"/>
  <path d="M82 118h36c10 0 18 12 16 24l-8 42c-2 10-10 16-20 16H94c-10 0-18-6-20-16l-8-42c-2-12 6-24 16-24Z" fill="#248a3d"/>
  <path d="M118 132h34c8 0 14 8 12 18l-10 36h-18l10-54Z" fill="#1d1d1f" opacity="0.82"/>
  <rect x="138" y="148" width="24" height="34" rx="4" fill="#fbfbfd" stroke="rgb(0 0 0 / 0.1)"/>
  <path d="M146 156h8M146 164h12M146 172h8" stroke="#248a3d" stroke-width="2" stroke-linecap="round"/>
  <circle cx="152" cy="126" r="10" fill="#fbfbfd" stroke="rgb(36 138 61 / 0.35)" stroke-width="2"/>
  <path d="M152 120v6l4-2-4-2Z" fill="#248a3d"/>
</svg>
