<svg xmlns="http://www.w3.org/2000/svg" viewBox="95 52 435 730" width="435" height="730"><path fill="#1e9462" d="M314.188 67.313c2.06 1.273 3.602 2.454 5.222 4.25 2.11 1.908 4.116 2.345 6.84 3.124C332.19 76.747 335.67 79.69 339 85c8.056 16.608 8.238 39.668 4.648 57.488a126 126 0 0 1-3.16 10.356c-1.087 4.8 1.861 10.205 3.45 14.719l.802 2.326.787 2.24.711 2.033c.808 2.117.808 2.117 2.762 4.838v3l1.688.55c.763.252 1.526.504 2.312.762l2.531.82C358 185 358 185 361.5 186.688c4.246 1.675 8.455 1.375 12.938 1.25 8.344-.226 13.605 1.425 20.562 6.063 2.398.394 2.398.394 5.086.492l3.053.191 3.236.192c9.097.65 17.14 1.616 25.625 5.125l2.27.867c9.528 4.118 14.675 11.958 19.286 20.854 3.138 6.334 5.84 12.836 8.444 19.404l1.17 2.944c1.906 4.967 3.603 9.586 3.83 14.931l-2 2h-4l.402 2.648c1.452 10.108 2.154 20.154 2.598 30.352l3.355.39c3.645.61 3.645.61 5.957 2.36 3.894 5.191 4.216 10.603 4.758 16.871l.26 2.838q.27 2.973.53 5.948c.261 2.99.538 5.978.816 8.966 2.536 27.903 2.536 27.903.39 32.725-2.476 3.262-5.336 4.523-9.066 5.902l-.078 2.344c-.36 6.62-.852 12.246-4.922 17.656-8.283 8.095-23.743 11.082-35 12-6.001.193-11.998.12-18 0l.219 2.457c.467 5.571.883 11.14 1.031 16.73l.078 2.668L414 426l-3 2c-.479 2.61-.479 2.61-.441 5.688l-.077 3.533-.045 3.779c-.196 8.562-.442 17.052-1.437 25.563l-.252 2.193c-.359 2.891-.824 5.471-1.748 8.244-.269 2.604-.443 5.208-.621 7.82a61 61 0 0 1-1.297 7.172c-1.445 6.27-2.154 12.63-2.957 19.008-1.244 9.672-2.6 19.315-4.187 28.938a704 704 0 0 0-3.987 27.718l-.338 2.703-.288 2.359a87 87 0 0 1-.839 4.84c-.9 4.526-1.357 8.374.45 12.665 1.361 2.48 2.815 4.878 4.314 7.277 5.152 8.608 9.808 17.348 14.212 26.361 2.975 6.07 6.068 12.065 9.233 18.037 5.53 10.446 10.801 21.015 16.055 31.602q2.708 5.455 5.422 10.906l1.284 2.593c2.682 5.387 5.512 10.614 8.69 15.73 1.142 3.038.591 5.163-.146 8.271l1.648.637c3.221 1.867 5.506 4.443 7.977 7.176.49.52.98 1.042 1.484 1.58 5.263 5.758 5.263 5.758 5.891 9.607-1.275 2.334-2.432 4.003-4.125 6l-1.372 1.698c-4.805 5.859-9.989 11.379-15.186 16.887-1.758 1.889-3.448 3.833-5.13 5.79-7.455 8.543-15.749 15.333-25.187 21.625-2.972-.149-4.513-.597-6.812-2.5-1.828-3.847-1.753-7.366-1.188-11.5 1.52-4.766 3.464-9.345 5.438-13.937 5.294-11.587 5.294-11.587 6.562-24.063-1.24-3.028-1.24-3.028-3.437-5.375l-2.278-2.82L414 719a236 236 0 0 1-3.5-5.25c-4.062-6.157-8.278-12.202-12.5-18.25-4.776-6.844-9.514-13.7-14.113-20.664-7.47-11.229-15.255-22.25-22.963-33.316-4.464-6.412-8.926-12.825-13.314-19.289-1.86-2.732-3.738-5.396-5.766-8.008-8.965-11.63-7.767-28.336-8.969-42.473l-.55-6.34q-.67-7.704-1.325-15.41l-.417 2.011a5834 5834 0 0 1-7.833 37.239l-.782 3.657-.734 3.421-.649 3.028c-.338 1.527-.694 3.05-1.1 4.561-.835 3.588-.91 7.27-1.133 10.938l-.354 5.466-.184 2.9c-1.583 24.82-3.45 49.599-6.542 74.283-1.452 11.672-2.696 23.366-3.96 35.058l-.347 3.21Q305.98 744.884 305 754h-3l2 7v20h-81c0-6 0-6 2.043-9.133 2.927-3.155 6.392-4.976 10.27-6.742l4.257-2.035 2.204-1.036c3.665-1.735 7.288-3.552 10.914-5.366l1.995-.986c2.787-1.385 5.493-2.81 8.149-4.432C265 750 265 750 267 750l-1-2a130 130 0 0 1-.127-6.098l-.009-3.943.007-4.351-.006-4.563q-.005-6.208 0-12.415c.003-4.326 0-8.653 0-12.979q-.003-10.903.005-21.805.007-12.609-.002-25.218-.007-10.816-.003-21.633.003-6.465-.001-12.928-.004-6.08.005-12.159 0-2.233-.002-4.465-.001-3.045.006-6.091l.001-3.445c.108-2.502.431-4.52 1.126-6.907.181-1.593.328-3.19.449-4.79l.223-2.876.23-3.1.25-3.23c.353-4.551.698-9.103 1.043-13.654 1.654-21.73 1.654-21.73 2.809-30.342 1.5-11.246 2.174-22.572 2.996-33.883.981-13.46 1.978-26.895 3.554-40.3.6-5.144 1.094-10.294 1.571-15.45l.262-2.79q.309-3.292.613-6.585l-4-2-1-76-3 5c-3.283 3.283-6.47 3.564-11 4l1 1.563c1.343 3.273 1.26 5.933 1 9.437-2 2-2 2-4.25 2.288l-2.839.05-3.217.068-3.49.035-3.581.042q-3.757.034-7.516.052c-3.828.027-7.654.102-11.482.178q-3.648.025-7.297.04l-3.466.091c-7.794-.043-7.794-.043-10.898-2.372A38.3 38.3 0 0 1 202 369l-1.715-2.328-1.222-1.922-1.278-1.953L197 361c1.23-3.688 2.939-4.724 6-7l-.625-1.875L202 350l2-2v-4l-4-1 .063-2.937L200 337c-1.663-1.663-3.783-1.36-6.062-1.562l-2.786-.254L189 335l1-6c-3.581-1.79-7.882-1.239-11.836-1.328C175 327 175 327 173.012 325.117L171 322l-1.504-2.295a661 661 0 0 1-5.309-8.33l-1.79-2.832q-1.792-2.833-3.571-5.673a274 274 0 0 0-3.835-5.857l-1.94-2.911-1.772-2.607c-1.457-2.843-1.768-4.348-1.279-7.495 1.197-2.119 1.197-2.119 3-4 2.377-.515 2.377-.515 5.218-.533l3.227-.048 3.485.015 3.583-.02q3.755-.01 7.51.01c3.83.013 7.658-.02 11.489-.059q3.646 0 7.293.006l3.472-.04c7.927.093 7.927.093 11.763 2.87L212 285l1.85 2.628 1.709 2.794 1.92 3.11 1.958 3.218c1.915 3.118 3.833 6.234 5.763 9.342q1.738 2.804 3.42 5.642c2.714 4.655 2.714 4.655 7.153 7.364l5.077-.069L243 319l.122-1.68c.655-7.704 2.108-15.2 3.644-22.77l.834-4.153q.872-4.336 1.755-8.671c.744-3.658 1.474-7.318 2.201-10.978a2254 2254 0 0 1 1.73-8.575c.403-1.99.797-3.98 1.191-5.972 3.116-15.148 6.365-28.593 18.816-38.576 1.947-1.853 3.14-3.76 4.52-6.062 4.56-7.233 12.165-11.889 20.187-14.563 2.938-.187 2.938-.187 5 0l-1-5-1.937.5c-9.68 1.58-9.68 1.58-14.399-.559-14.513-9.138-22.21-25.254-27.664-40.941-1.128-3.702-2.137-7.435-3.152-11.168-1.428-5.005-3.373-8.736-6.508-12.844-1.499-2.223-2.167-4.23-2.903-6.8-1.219-4.178-2.939-5.564-6.437-8.188-3.4-5.745-3.893-11.401-3-18 1.6-2.837 2.999-3.619 6-4.762l2.375-.863c6.81-2.535 12.245-6.894 18.025-11.191 14.191-10.5 34.48-18.46 51.788-9.871"/><path fill="#0c593f" d="M409 428q.075 8.056.11 16.113.015 2.736.04 5.47c.088 9.39.166 18.258-2.15 27.417-.302 2.693-.488 5.363-.656 8.066-.281 2.397-.701 4.562-1.258 6.899-1.445 6.279-2.157 12.649-2.961 19.035-1.244 9.672-2.6 19.315-4.187 28.938a704 704 0 0 0-3.987 27.718l-.338 2.703-.288 2.359a87 87 0 0 1-.839 4.84c-.9 4.526-1.357 8.374.45 12.665 1.361 2.48 2.815 4.878 4.314 7.277 5.152 8.608 9.808 17.348 14.212 26.361 2.975 6.07 6.068 12.065 9.233 18.037 5.53 10.446 10.801 21.015 16.055 31.602q2.708 5.455 5.422 10.906l1.284 2.593c2.682 5.387 5.512 10.614 8.69 15.73 1.142 3.038.591 5.163-.146 8.271l1.648.637c3.221 1.867 5.506 4.443 7.977 7.176.49.52.98 1.042 1.484 1.58 5.263 5.758 5.263 5.758 5.891 9.607-1.275 2.334-2.432 4.003-4.125 6l-1.372 1.698c-4.805 5.859-9.989 11.379-15.186 16.887-1.758 1.889-3.448 3.833-5.13 5.79-7.455 8.543-15.749 15.333-25.187 21.625-2.972-.149-4.513-.597-6.812-2.5-1.828-3.847-1.753-7.366-1.188-11.5 1.52-4.766 3.464-9.345 5.438-13.937 5.294-11.587 5.294-11.587 6.562-24.063-1.24-3.028-1.24-3.028-3.437-5.375l-2.278-2.82L414 719a236 236 0 0 1-3.5-5.25c-4.062-6.157-8.278-12.202-12.5-18.25-4.776-6.844-9.514-13.7-14.113-20.664-7.47-11.229-15.255-22.25-22.963-33.316-4.464-6.412-8.926-12.825-13.314-19.289-1.86-2.732-3.738-5.396-5.766-8.008-8.965-11.63-7.767-28.336-8.969-42.473l-.55-6.34q-.67-7.704-1.325-15.41l-.417 2.011a5834 5834 0 0 1-7.833 37.239l-.782 3.657-.734 3.421-.649 3.028c-.338 1.527-.694 3.05-1.1 4.561-.835 3.588-.91 7.27-1.133 10.938l-.354 5.466-.184 2.9c-1.583 24.82-3.45 49.599-6.542 74.283-1.452 11.672-2.696 23.366-3.96 35.058l-.347 3.21Q305.98 744.884 305 754h-3l2 7v20h-81c0-6 0-6 2.043-9.133 2.927-3.155 6.392-4.976 10.27-6.742l4.257-2.035 2.204-1.036c3.665-1.735 7.288-3.552 10.914-5.366l1.995-.986c2.787-1.385 5.493-2.81 8.149-4.432C265 750 265 750 267 750l-1-2a130 130 0 0 1-.127-6.098l-.009-3.943.007-4.351-.006-4.563q-.005-6.207 0-12.415c.003-4.326 0-8.653 0-12.979q-.003-10.903.005-21.805.006-12.609-.002-25.218-.007-10.816-.003-21.633.003-6.465-.001-12.928-.004-6.08.005-12.159 0-2.233-.002-4.465-.001-3.045.006-6.091l.001-3.445c.108-2.502.431-4.52 1.126-6.907.181-1.593.328-3.19.449-4.79l.223-2.876.23-3.1.25-3.23c.353-4.551.698-9.103 1.043-13.654 1.654-21.73 1.654-21.73 2.809-30.342 1.5-11.246 2.174-22.572 2.996-33.883.986-13.532 1.978-27.04 3.584-40.514.371-3.223.669-6.439.916-9.673.407-4.778 1.356-9.284 2.5-13.938 7.318.491 14.59 1.156 21.875 2 28.936 3.287 59.646 3.785 88.125-3l3.516-.824C408.59 428 408.59 428 409 428"/><path fill="#7b5536" d="M383 188c4.507 1.317 8.113 3.409 12 6 2.398.394 2.398.394 5.086.492l3.053.191 3.236.192c9.097.65 17.14 1.616 25.625 5.125l2.27.867c9.528 4.118 14.675 11.958 19.286 20.854 3.138 6.334 5.84 12.836 8.444 19.404l1.17 2.944c1.906 4.967 3.603 9.586 3.83 14.931l-2 2h-4l.402 2.648c1.452 10.108 2.154 20.154 2.598 30.352l3.355.39c3.645.61 3.645.61 5.957 2.36 3.894 5.191 4.216 10.603 4.758 16.871.13 1.405.13 1.405.26 2.838q.27 2.973.53 5.948c.261 2.99.538 5.978.816 8.966 2.536 27.903 2.536 27.903.39 32.725-2.476 3.262-5.336 4.523-9.066 5.902l-.078 2.344c-.36 6.62-.852 12.246-4.922 17.656-8.283 8.095-23.743 11.082-35 12-6.006.193-11.99.091-18 0l-1-18-4.77-1.285a713 713 0 0 1-14.92-4.266A1971 1971 0 0 0 377 374l-2.53-.727A443 443 0 0 0 368 371.5l-3.562-.969c-7.523-1.162-14.955 1.18-22.266 2.848C339 374 339 374 335 374v2c-.857.182-1.714.364-2.598.55-7.343 1.525-7.343 1.525-14.34 4.137-3.277 1.405-5.536 1.571-9.062 1.313a919 919 0 0 1-1.355-4.73q-.713-2.507-1.446-5.008l-.824-2.887c-.26-.9-.52-1.8-.79-2.727-.583-2.64-.692-4.954-.585-7.648l3.797-.402 4.953-.536 2.5-.263 2.422-.264 2.222-.238c2.11-.257 2.11-.257 4.142-.827 2.98-.714 5.914-.529 8.964-.47v2l2.957-.035 3.856-.027 3.832-.036C347 358 347 358 350 359c1.593.136 3.191.224 4.79.281l2.855.114 2.98.105q2.895.105 5.79.219l2.591.092c2.427.153 4.791.4 7.202.696 5.026.576 10.003.655 15.058.661l2.894.01q3.015.007 6.03.007c3.038.002 6.074.02 9.11.04 10.094.028 19.784-.134 29.7-2.225v-2l2.313-1.187c2.774-1.872 4.038-3.3 5.188-6.445 2.5-11.857-.464-23.953-3.126-35.493l-1.105-4.948c-2.285-10.141-4.836-20.17-7.848-30.122-1.316-4.357-2.453-8.747-3.566-13.16-6.258-27.15-6.258-27.15-18.856-51.645l-1.3-1.895c-2.453-3.283-5.255-5.294-8.884-7.16C400 204 400 204 398.277 202.867c-3.106-2.023-5.733-3.174-9.402-3.367-4.56.588-5.767 1.153-8.875 4.5-11.077 13.39-14.405 28.653-14.368 45.574.22 13.73 3.561 26.136 8.415 38.899.838 3.101.982 4.814.82 7.914-.14 5.318 1.858 8.868 4.508 13.363q1.234 2.178 2.46 4.36l1.112 1.905c1.19 2.244 2.11 4.626 3.053 6.985l-12 1-3.875-7.25-1.105-2.066q-1.056-1.978-2.105-3.96a346 346 0 0 0-2.173-4.02C364 305 364 305 364 302h-3l.367 1.788q.82 4.012 1.633 8.024l.578 2.815.547 2.705.508 2.491C365 322 365 322 365 325c-7.775 1.875-15.498 3.324-23.437 4.25l-2.256.279c-6.061.659-11.135.84-16.475-2.525l-3.02-2.442c-7.154-5.721-11.479-6.916-20.597-7.902-3.215-.66-3.215-.66-5.012-1.742-1.88-2.998-2.592-6.263-3.39-9.668l-.538-2.094c-1.094-4.497-1.45-8.531-1.275-13.156l2.219-.629q4.676-1.331 9.35-2.673 2.58-.74 5.16-1.478c11.303-3.235 22.576-6.479 33.65-10.442 3.66-1.277 6.735-2.087 10.621-1.778v-2c-6.275-.427-11.219 1.107-17.125 3.125q-2.936.97-5.875 1.934l-3.012.987c-4.673 1.492-9.389 2.821-14.113 4.142-6.644 1.86-13.194 3.83-19.695 6.148C288 288 288 288 285 288l.367 1.833q.823 4.144 1.633 8.292l.578 2.883c.92 4.728 1.683 9.148 1.422 13.992h-2a1857 1857 0 0 1-2.5-10.562l-.723-3.002c-1.226-5.276-2.08-10.019-1.777-15.436 12.34-4.68 12.34-4.68 18.125-5.875 4.76-1.013 9.29-2.532 13.883-4.125 2.069-.692 4.156-1.332 6.254-1.93a251 251 0 0 0 8.437-2.578l2.475-.8q2.533-.824 5.062-1.657l2.463-.793 2.214-.723C343 267 343 267 347 267l-.21-2.35c-.692-8.246-1.004-16.438-1.04-24.712l-.062-3.565c-.035-7.883 1.024-14.83 3.312-22.373h2l-.184-2.137c.422-6.57 5.167-12.74 9.582-17.386 7.486-6.71 12.5-7.292 22.602-6.477"/><path fill="#1d9160" d="M390.754 198.477c4.624 1.077 8.363 3.895 12.246 6.523l3.25 1.875c9.592 7.412 14.236 19.535 17.688 30.75l1.04 3.32c2.763 8.933 5.173 17.935 7.46 27a461 461 0 0 0 3.5 12.922c16.066 56.378 16.066 56.378 10.75 70.383-2.638 4.298-2.638 4.298-4.688 5.75h-3v2c-10.873 3.444-21.417 3.398-32.712 3.281-3.046-.031-6.09-.04-9.136-.047l-5.886-.03-2.719-.014c-4.904-.055-9.688-.36-14.556-.957-2.524-.295-5.037-.424-7.577-.514l-2.879-.114-5.89-.21-2.856-.114-2.572-.092C350 360 350 360 347 359c-2.393-.226-4.79-.408-7.187-.562L333 358v-27l-2-1c7.501-1.636 15.005-2.718 22.625-3.625l3.332-.406q4.02-.49 8.043-.969l-.875-3.762-1.125-4.925-.578-2.475c-.91-4.01-1.692-7.695-1.422-11.838h3q1.944 3.81 3.875 7.625l1.105 2.16c2.02 4.003 3.728 7.904 5.02 12.215l12-1-2.117-3.797q-1.38-2.476-2.758-4.953l-1.395-2.5-1.347-2.422-1.238-2.222L376 305l-1.16-2.032c-.84-1.968-.84-1.968-.652-5.78.108-4.455-.961-7.934-2.438-12.125-7.157-20.419-10.763-42.573-3.246-63.477 2.042-4.895 4.39-9.29 7.496-13.586l2.063-2.875c3.871-4.247 6.586-6.949 12.69-6.648"/><path fill="#d99c71" d="M314.188 67.313c2.06 1.273 3.602 2.454 5.222 4.25 2.11 1.908 4.116 2.345 6.84 3.124C332.19 76.747 335.67 79.69 339 85c8.056 16.608 8.238 39.668 4.648 57.488a126 126 0 0 1-3.16 10.356c-1.087 4.8 1.861 10.205 3.45 14.719l.802 2.326.787 2.24.711 2.033c.808 2.117.808 2.117 2.762 4.838v3l2 1c-5.855 10.54-13.856 18.365-24.68 23.777-5.206 1.917-9.877 2.263-15.32 1.223-3.884-1.982-4.774-3.557-6.75-7.437-1.013-2.888-1.793-5.547-2.25-8.563l-1.937.5c-9.68 1.58-9.68 1.58-14.399-.559-14.513-9.138-22.21-25.254-27.664-40.941-1.128-3.702-2.137-7.435-3.152-11.168-1.428-5.005-3.373-8.736-6.508-12.844-1.499-2.223-2.167-4.23-2.903-6.8-1.219-4.178-2.939-5.564-6.437-8.188-3.4-5.745-3.893-11.401-3-18 1.6-2.837 2.999-3.619 6-4.762l2.375-.863c6.81-2.535 12.245-6.894 18.025-11.191 14.191-10.5 34.48-18.46 51.788-9.871"/><path fill="#835b3a" d="M383 188c4.507 1.317 8.113 3.409 12 6 2.398.394 2.398.394 5.086.492l3.053.191 3.236.192c9.093.649 17.146 1.61 25.625 5.125l2.375.938c4.848 2.138 7.518 4.79 10.625 9.062l-4-1v-2c-7.282-1.38-16.31-2.755-23.39-.105-1.579.97-3.1 2.031-4.61 3.105-4.54 0-5.37-.675-8.875-3.312-6.945-5.145-6.945-5.145-15.187-7.125-3.838.178-3.838.178-6.5 1.812-9.139 9.841-15.508 22.696-16.659 36.22-.745 18.151 1.839 33.972 8.268 50.878.838 3.101.982 4.814.82 7.914-.14 5.318 1.858 8.868 4.508 13.363q1.234 2.178 2.46 4.36l1.112 1.905c1.19 2.244 2.11 4.626 3.053 6.985l-12 1-3.875-7.25-1.105-2.066q-1.056-1.978-2.105-3.96a346 346 0 0 0-2.173-4.02C364 305 364 305 364 302h-3l.367 1.788q.82 4.012 1.633 8.024l.578 2.815.547 2.705.508 2.491C365 322 365 322 365 325c-7.775 1.875-15.498 3.324-23.437 4.25l-2.256.279c-6.061.659-11.135.84-16.475-2.525l-3.02-2.442c-7.154-5.721-11.479-6.916-20.597-7.902-3.215-.66-3.215-.66-5.012-1.742-1.88-2.998-2.592-6.263-3.39-9.668l-.538-2.094c-1.094-4.497-1.45-8.531-1.275-13.156l2.219-.629q4.676-1.331 9.35-2.673 2.58-.74 5.16-1.478c11.303-3.235 22.576-6.479 33.65-10.442 3.66-1.277 6.735-2.087 10.621-1.778v-2c-6.275-.427-11.219 1.107-17.125 3.125q-2.936.97-5.875 1.934l-3.012.987c-4.673 1.492-9.389 2.821-14.113 4.142-6.644 1.86-13.194 3.83-19.695 6.148C288 288 288 288 285 288l.367 1.833q.823 4.144 1.633 8.292l.578 2.883c.92 4.728 1.683 9.148 1.422 13.992h-2a1857 1857 0 0 1-2.5-10.562l-.723-3.002c-1.226-5.276-2.08-10.019-1.777-15.436 12.34-4.68 12.34-4.68 18.125-5.875 4.76-1.013 9.29-2.532 13.883-4.125 2.069-.692 4.156-1.332 6.254-1.93a251 251 0 0 0 8.437-2.578l2.475-.8q2.533-.824 5.062-1.657l2.463-.793 2.214-.723C343 267 343 267 347 267l-.21-2.35c-.692-8.246-1.004-16.438-1.04-24.712l-.062-3.565c-.035-7.883 1.024-14.83 3.312-22.373h2l-.184-2.137c.422-6.57 5.167-12.74 9.582-17.386 7.486-6.71 12.5-7.292 22.602-6.477"/><path fill="#0e5f43" d="M151 283a80 80 0 0 1 4.823-.145l3.116-.02 3.393-.003 3.465-.01q3.637-.007 7.276-.007c3.713-.002 7.426-.02 11.14-.04q3.528-.005 7.057-.005l3.374-.022 3.144.01 2.764-.005c2.657.268 4.213.799 6.448 2.247a102 102 0 0 1 4.813 7.125l1.42 2.247c1.599 2.536 3.183 5.082 4.767 7.628q1.815 2.9 3.633 5.797 3.84 6.13 7.664 12.27a3944 3944 0 0 0 14.22 22.59q3.964 6.264 7.92 12.53l1.468 2.322q1.38 2.183 2.75 4.371a225 225 0 0 0 2.803 4.306l1.39 2.115 1.254 1.868C262 372 262 372 262 376c-7.58.178-15.16.3-22.742.385q-3.867.052-7.734.143c-3.709.085-7.416.125-11.126.156l-3.485.11c-7.845.003-7.845.003-10.953-2.317A38 38 0 0 1 202 369l-1.715-2.328-1.222-1.922-1.278-1.953L197 361c1.23-3.688 2.939-4.724 6-7l-.625-1.875L202 350l2-2v-4l-4-1 .063-2.937L200 337c-1.663-1.663-3.783-1.36-6.062-1.562l-2.786-.254L189 335l1-6c-3.581-1.79-7.882-1.239-11.836-1.328C175 327 175 327 173.012 325.117L171 322l-1.504-2.295a661 661 0 0 1-5.309-8.33l-1.79-2.832q-1.792-2.833-3.571-5.673a274 274 0 0 0-3.835-5.857l-1.94-2.911-1.772-2.607c-1.419-2.767-1.625-4.43-1.279-7.495z"/><path fill="#4a301f" d="M314.188 67.313c2.06 1.273 3.602 2.454 5.222 4.25 2.11 1.908 4.116 2.345 6.84 3.124C332.19 76.747 335.67 79.69 339 85c8.049 16.595 8.273 39.735 4.645 57.54-1.023 3.903-2.255 7.67-3.645 11.46h-2a211 211 0 0 1-1.562-3.75l-.88-2.11c-.65-2.493-.423-3.737.442-6.14a132 132 0 0 1 3-5c1.851-3.703 1.47-7.96 1-12-1.211-2.759-2.859-4.859-5-7-2.415-.417-2.415-.417-5 0-2.07 2.16-2.927 3.631-3.512 6.578l-.175 2.672-.2 2.703L326 132l-7 1-1.937-5.312-1.09-2.989A250 250 0 0 1 314 119l-2.375-.937c-3.12-1.263-3.975-2.156-5.625-5.063a118 118 0 0 1-2-7c-6.257 1.128-11.435 2.983-17.172 5.7-11.708 5.384-21.975 7.595-34.828 7.3l1 13c-4.316-4.09-6.472-6.727-7.812-12.5-1.39-4.098-2.857-4.9-6.188-7.5-3.4-5.745-3.893-11.401-3-18 1.6-2.837 2.999-3.619 6-4.762l2.375-.863c6.81-2.535 12.245-6.894 18.025-11.191 14.191-10.5 34.48-18.46 51.788-9.871"/><path fill="#d79c72" d="M350 271v2a2504 2504 0 0 1-44.312 13.313l-2.622.77c-4.69 1.35-9.216 2.36-14.066 2.917q.966 5.126 1.938 10.25l.552 2.934.537 2.832.492 2.602c.434 2.147.93 4.262 1.481 6.382l3.148.227c8.976.789 15.515 2.188 22.852 7.773l2.207 1.656a361 361 0 0 1 4.035 3.098c2.116 1.5 4.356 2.3 6.758 3.246.973 2.918 1.129 4.814 1.133 7.852l.004 2.828-.012 2.945.012 2.969-.004 2.82-.004 2.592L334 355c-2.228 2.228-6.852 2.079-9.937 2.563l-2.613.413c-5.884.889-11.492 1.317-17.45 1.024l.875 3.324 1.125 4.363.578 2.186c.97 3.796 1.672 7.173 1.422 11.127-1.86-.473-1.86-.473-4-2-1.124-2.728-1.669-5.552-2.25-8.437l-.523-2.354c-.687-3.162-1.227-5.96-1.227-9.209l-2.25-.25c-3.454-.942-4.523-1.949-6.75-4.75-3.922-6.738-5.94-13.28-7-21l-1-1c-.312-2.312-.312-2.312 0-5 .68-.64 1.361-1.279 2.063-1.937L287 322c-.143-3.2-.143-3.2-1-6l3-1-.367-1.725c-.552-2.61-1.092-5.224-1.633-7.837l-.578-2.713c-1.03-5.018-1.647-9.604-1.422-14.725 10.284-3.54 20.597-6.823 31.077-9.733 4.447-1.243 8.853-2.549 13.232-4.013l2.582-.858q2.41-.808 4.806-1.656c4.91-1.642 8.233-1.87 13.303-.74"/><path fill="#715032" d="M333 356v2l2.957-.035c1.272-.01 2.545-.018 3.856-.027l3.832-.036C347 358 347 358 350 359c1.593.136 3.191.224 4.79.281l2.855.114 2.98.105c10.858.393 10.858.393 15.559 1 7.773.94 15.666.87 23.488 1.052q3.225.08 6.45.167l3.856.092C413 362 413 362 415 363l1.313 2.313c1.545 2.859 1.545 2.859 4.437 4.562L423 372c-.08 4.396-1.19 8.017-3 12a125 125 0 0 1-6-4v-2h-2l-1 6c-.662-.21-1.324-.422-2.006-.64-12.3-3.9-24.626-7.681-37.119-10.923l-2.955-.797c-9.6-2.42-17.184-.443-26.748 1.739C339 374 339 374 335 374v2c-.857.182-1.714.364-2.598.55-7.343 1.525-7.343 1.525-14.34 4.137-3.277 1.405-5.536 1.571-9.062 1.313a919 919 0 0 1-1.355-4.73q-.713-2.507-1.446-5.008l-.824-2.887c-.26-.9-.52-1.8-.79-2.727-.583-2.64-.692-4.954-.585-7.648l3.797-.402 4.953-.536 2.5-.263 2.422-.264 2.222-.238c2.11-.257 2.11-.257 4.142-.827 2.98-.714 5.914-.529 8.964-.47"/><path fill="#7d5c3a" d="m300 198-2.125 3.063C278.23 232.716 277.77 272.068 277 308c-2-1-2-1-2.965-2.941-9.029-24.332-11.274-55.943-2.535-80.497L273 221l1.313-3.5c4.757-9.868 14-19.808 25.687-19.5"/><path fill="#1d4b32" d="M373 361q8.49.177 16.98.372 2.89.065 5.78.125 4.147.088 8.295.187l2.62.05c6.097.152 6.097.152 8.325 1.266l1.313 2.313c1.545 2.859 1.545 2.859 4.437 4.562L423 372c-.08 4.396-1.19 8.017-3 12a125 125 0 0 1-6-4v-2h-2l-1 6-1.958-.623C392.152 378.027 375.189 373.29 358 369c3.682-2.454 7.427-3.598 11.602-5l2.398-1z"/><path fill="#d79b70" d="m177.25 325.758 3.75.367 3.75.32C188 327 188 327 191 329l-1 5 1.898.148 2.477.227c.812.07 1.624.14 2.46.21C199 335 199 335 201 337c-.375 3.125-.375 3.125-1 6l5 1-.5 2.313c-.591 2.723-.591 2.723-.5 5.687-1.149 3.829-3.785 5.848-6.992 8.008-3.62 1.789-6.023 1.656-10.008.992-1.687-2.25-1.687-2.25-3-5l-2.437-1.812c-4.921-4.201-6.605-10.173-8.563-16.188l-2-3c-.374-2.914-.234-4.53 1.082-7.168C174 326 174 326 177.25 325.758"/><path fill="#96a29c" d="M153 280c7.599-.127 15.197-.214 22.797-.275q3.877-.038 7.755-.102c3.716-.06 7.43-.09 11.147-.111l3.501-.078c8.009-.003 8.009-.003 11.846 2.758L212 285l1.85 2.628 1.709 2.794 1.92 3.11 1.958 3.218q3.765 6.135 7.563 12.25l1.69 2.734 1.572 2.465 1.362 2.16c1.414 1.986 1.414 1.986 4.751 2.704L239 319v1h-5l3.558 5.64 3.166 5.022q4.561 7.235 9.19 14.428l1.937 3.017q1.884 2.932 3.778 5.856l1.73 2.697 1.546 2.395C260 361 260 361 260 363h2c2.326 3.634 2.163 6.77 2 11l-2 1-1.664-3.46c-2.293-4.58-4.945-8.86-7.711-13.165l-1.577-2.476q-2.52-3.952-5.048-7.899-3.409-5.342-6.812-10.687l-1.753-2.749c-5.099-8.009-10.13-16.059-15.15-24.118a1001 1001 0 0 0-12.746-19.934C208 288 208 288 207 285c-2.98-1.154-5.968-1.15-9.136-1.205l-3.093-.06-3.318-.051-3.413-.063q-5.395-.097-10.79-.183l-7.316-.131q-8.967-.161-17.934-.307z"/><path fill="#0a563b" d="M276 325h1c.088 4.187.14 8.374.188 12.563l.076 3.58c.053 6.402-.031 11.257-3.264 16.857-2.297 2.568-3.929 3.788-7.324 4.46A93 93 0 0 1 260 363c-3.223-5.176-3.223-5.176-4-7l1-3c1.637-.816 1.637-.816 3.688-1.562 5.598-2.67 7.787-6.946 10.312-12.438 1.86-4.601 3.463-9.282 5-14"/><path fill="#efe4d3" d="M350 271v2a2504 2504 0 0 1-44.312 13.313l-2.622.77c-4.69 1.35-9.216 2.36-14.066 2.917l.367 1.864q.82 4.192 1.633 8.386l.578 2.934.547 2.832.508 2.602C293 311 293 311 293 315h-3l-4-16-.557-2.009c-.666-2.994-.502-5.937-.443-8.991 10.284-3.54 20.597-6.823 31.077-9.733 4.447-1.243 8.853-2.549 13.232-4.013l2.582-.858q2.41-.808 4.806-1.656c4.91-1.642 8.233-1.87 13.303-.74"/><path fill="#ad6a3f" d="M328 165c1 3 1 3-.223 6.695q-.9 2.223-1.84 4.43l-.978 2.324c-3.71 8.588-8.4 16.753-15.959 22.551-2.21.688-2.21.688-4 1-2.018-4.163-2.885-7.413-2-12 1.986-1.71 4.1-2.946 6.355-4.281 7.919-5.147 13.867-12.677 18.645-20.719"/><path fill="#4b3721" d="M375 301c1.135 1.595 1.135 1.595 2.191 3.64l1.174 2.247 1.197 2.363 1.21 2.316A128 128 0 0 1 386 323l-12 1-3.875-7.25-1.105-2.066q-1.056-1.978-2.105-3.96a346 346 0 0 0-2.173-4.02C364 305 364 305 364 302c7.625-2.125 7.625-2.125 11-1"/><path fill="#7b6d49" d="M347 262h1v5h-1zm0 6-6 2v2l-9.259 2.728a2824 2824 0 0 1-13.792 4.022c-14.027 4.025-14.027 4.025-27.875 8.621C288 288 288 288 285 288l.367 1.833q.823 4.144 1.633 8.292l.578 2.883c.92 4.728 1.683 9.148 1.422 13.992h-2a1857 1857 0 0 1-2.5-10.562l-.723-3.002c-1.226-5.276-2.08-10.019-1.777-15.436 12.34-4.68 12.34-4.68 18.125-5.875 4.76-1.013 9.29-2.532 13.883-4.125 2.069-.691 4.155-1.33 6.254-1.926a214 214 0 0 0 8.437-2.617l2.475-.814q2.535-.838 5.062-1.696l2.463-.802 2.214-.74c2.359-.458 3.826-.151 6.087.595"/><path fill="#573c28" d="m455 231 3 1c1.06 1.838 1.06 1.838 2.008 4.227l1.05 2.628 1.067 2.77 1.09 2.7c1.928 4.904 3.431 9.4 3.785 14.675l-1 1c-2 .04-4 .043-6 0l-1.937-11.125-.553-3.172c-.853-4.898-1.704-9.797-2.51-14.703"/><path fill="#a1aaa5" d="M153 280h32c-4.433 3.325-5.436 3.363-10.734 3.293l-3.926-.03-4.09-.075q-2.068-.024-4.137-.042A1292 1292 0 0 1 152 283z"/><path fill="#eae1ce" d="M300 358h3a1516 1516 0 0 1 2.5 8.188l.723 2.33c1.18 3.926 2.11 7.332 1.777 11.482-1.86-.473-1.86-.473-4-2-1.124-2.728-1.669-5.552-2.25-8.437l-.523-2.354c-.687-3.162-1.227-5.96-1.227-9.209"/><path fill="#6c764f" d="M347 262h1v5h-1zm0 6-6 2v2q-4.184 1.293-8.375 2.563l-2.406.748-2.305.693c-.702.215-1.403.43-2.126.65C324 277 324 277 322 276c3.498-4.345 7.327-5.385 12.5-6.812l2.3-.694c3.861-1.105 6.283-1.731 10.2-.494"/><path fill="#7b6f4c" d="M298 358h2q1.005 4.154 2 8.313l.578 2.38.547 2.295.508 2.11C304 375 304 375 304 378h-2c-2.257-6.671-3.566-12.969-4-20"/><path fill="#4f3e26" d="M396 197c2.375 1.5 2.375 1.5 4 3l-1 3-2.625-1.437c-3.229-1.495-5.865-2.145-9.375-2.563 3.489-2.326 4.897-2.419 9-2"/><path fill="#ae966c" d="m288 321 4 2v3l-4-2-5 4c1.293-2.884 2.66-4.872 5-7"/><path fill="#727451" d="m293 284-2 3c-2.625.688-2.625.688-5 1l-2-3c5.625-2.125 5.625-2.125 9-1"/><path fill="#696540" d="M282 286h5l-1 2h-2v5h-2z"/><path fill="#6d4324" d="M296 324c2.343.256 4.678.593 7 1l1 2h-8z"/><path fill="#4a4d30" d="M390 197c2.688.375 2.688.375 5 1v2l-8-1z"/><path fill="#f6e5ce" d="M292 323h3v4l-3-1z"/><path fill="#9f825f" d="M330 272c2.125.938 2.125.938 4 2l-6 1v-2z"/><path fill="#528b5b" d="m333 329 3 1-3 4v-3l-2-1z"/><path fill="#875f3e" d="m289 322 3 1v3l-3-1z"/></svg>